<svg xmlns="http://www.w3.org/2000/svg" xmlns:xlink="http://www.w3.org/1999/xlink" width="100%" height="100%" viewBox="0 -0.062439 1208 608.125" preserveAspectRatio="xMidYMid meet" ><rect id="svgEditorBackground" x="0" y="0" width="1208" height="608" style="fill: none; stroke: none;"/><path stroke="black" id="e12_freepath" style="fill: none; stroke-width: 2px; vector-effect: non-scaling-stroke;" d="M 592.618 276.938 l 0 2.21245 l 0 2.21245 l 0 2.21245 l 0 2.21245 l 0 2.21245 l 0 2.21245 l -2.21246 2.21245 l 0 2.21245 l 0 2.21245 l -4.4249 2.21245 l 0 2.21245 l 0 2.21245 l -2.21246 0 l 0 4.42491 l -2.21246 2.21245 l -4.4249 6.63736 l -2.21246 4.42491 l -2.21246 4.42491 l -2.21246 4.42491 l 0 4.42491 l -2.21246 2.21246 l 0 2.21246 l -2.21246 0 l 0 2.21246 l 0 2.21246 l -2.21246 2.21246 l 0 2.21246 l -2.21246 0 l 0 4.4249 l 0 2.21246 l -2.21246 2.21246 l -2.21246 0 l 0 2.21246 l 0 -2.21246 l 2.21246 0 l 2.21246 -2.21246 l 0 -2.21246 l 2.21246 0 l 2.21246 0 l 0 -2.21246 l 2.21246 0 l 2.21246 0 l 0 -2.21246 l 2.21246 0 l 4.4249 -2.21246 l 2.21246 -2.21246 l 2.21246 0 l 2.21246 0 l 2.21246 -2.21246 l 2.21246 0 l 4.4249 0 l 2.21246 0 l 4.4249 -2.21246 l 6.63736 0 l 8.84982 0 l 4.4249 0 l 6.63736 0 l 4.4249 -2.21246 l 6.63736 0 l 4.4249 -2.21245 l 2.21246 0 l 4.4249 0 l 4.4249 0 l 2.21246 0 l 4.4249 -2.21245 l 4.4249 0 l 2.21246 0 l 4.4249 0 l 2.21246 0 l -2.21246 0 l -2.21246 0 l -4.4249 0 l -2.21246 0 l -4.4249 0 l -2.21246 0 l -2.21246 0 l -2.21246 0 l -2.21246 2.21245 l -2.21246 0 l -2.21246 0 l -2.21246 0 l -2.21246 0 l -2.21246 2.21245 l -2.21246 0 l -2.21246 0 l -2.21246 2.21246 l -2.21246 0 l -2.21246 0 l -2.21246 0 l 0 2.21246 l -2.21246 0 l -2.21246 0 l -2.21246 0 l -2.21246 0 l -2.21246 0 l -4.4249 2.21246 l -2.21246 0 l -2.21246 0 l -2.21246 0 l -2.21246 0 l -2.21246 0 l -2.21246 0 l -2.21246 0 l -2.21246 0 l 0 2.21246 l -2.21246 0 l -2.21246 0 l -2.21246 0 l -2.21246 0 l -2.21246 4.4249 l -2.21246 0 l -2.21246 0 l -2.21246 0 l -2.21246 0 l 0 2.21246 l -2.21246 0 l -2.21246 0 l -2.21246 0 l -2.21246 0 l 0 -2.21246 l 0 -2.21246 l 0 -4.4249 l 2.21246 -4.4249 l 2.21246 -2.21246 l 2.21246 -4.42491 l 4.4249 -4.42491 l 4.4249 -6.63736 l 0 -2.21245 l 2.21246 -2.21245 l 0 -2.21245 l 0 -2.21245 l 0 -4.42491 l 2.21246 0 l 0 -2.21245 l 0 -2.21245 l 0 -2.21245 l 0 -2.21245 l 0 -2.21245 l 2.21246 -2.21245 l 0 -2.21245 l 2.21246 -2.21245 l 2.21246 -4.42491 l 2.21246 0 l 0 -2.21245 l 2.21246 0 l 0 -2.21245 l 0 -2.21245 l 2.21246 0 l 0 -2.21245 l 0 -2.21245 l 0 -2.21245 l 0 -2.21245 l 2.21246 0 l 0 -2.21245 l 0 -2.21245 l 0 2.21245 l 0 2.21245 l 0 2.21245 l 0 2.21245 l -2.21246 2.21245 l 0 2.21245 l -2.21246 2.21245 l 0 2.21245 l 0 2.21245 l -2.21246 2.21245 l 0 2.21245 l 0 2.21245 l 0 2.21245 l 0 4.42491 l -2.21246 2.21245 l 0 2.21245 l -2.21246 2.21245 l 0 2.21245 l -2.21246 2.21245 l 0 2.21245 l -2.21246 0 l 0 2.21245 l 0 2.21245 l -2.21246 0 l 0 2.21245 l 0 2.21245 l -2.21246 0 l 0 2.21245 l -2.21246 2.21245 l 0 2.21245 l -2.21246 2.21245 l 0 2.21245 l -2.21246 0 l 0 2.21245 l 0 2.21245 l -2.21246 0 l 0 2.21246 l 0 2.21246 l -2.21246 0 l 0 2.21246 l -4.4249 0 l 0 2.21246 l 0 2.21246 l -2.21246 0 l 0 2.21246 l 0 2.21246 l -2.21246 0 l 0 2.21246 l 0 2.21246 l -2.21246 0 l 0 2.21246 l -2.21246 2.21246 l -2.21246 0 l 0 -2.21246 l 2.21246 0 l 2.21246 0 l 2.21246 -2.21246 l 2.21246 0 l 2.21246 0 l 2.21246 -2.21246 l 2.21246 0 l 2.21246 0 l 0 -2.21246 l 2.21246 0 l 2.21246 0 l 2.21246 -2.21246 l 2.21246 0 l 2.21246 -2.21246 l 2.21246 0 l 2.21246 0 l 0 -4.4249 l 2.21246 0 l 2.21246 0 l 2.21246 0 l 2.21246 0 l 0 -2.21246 l 2.21246 0 l 2.21246 0 l 2.21246 0 l 2.21246 0 l 2.21246 0 l 2.21246 0 l 2.21246 0 l 0 -2.21246 l 2.21246 0 l 2.21246 0 l 2.21246 0 l 2.21246 0 l 2.21246 0 l 0 -2.21246 l 2.21246 0 l 2.21246 0 l 2.21246 0 l 2.21246 0 l 0 -2.21245 l 2.21246 0 l 2.21246 0 l 2.21246 0 l 0 -2.21245 l 2.21246 0 l 2.21246 0 l 2.21246 0 l 0 -2.21245 l 2.21246 0 l 2.21246 0 l 2.21246 0 l 2.21246 0 l 2.21246 0 l 2.21246 0 l 2.21246 0 l 2.21246 0 l 2.21246 0 l -2.21246 0 l -2.21246 0 l -2.21246 2.21245 l -2.21246 0 l -2.21246 2.21245 l -4.4249 0 l 0 2.21245 l -2.21246 0 l -2.21246 0 l 0 2.21246 l -2.21246 0 l -2.21246 0 l -2.21246 0 l -2.21246 0 l -2.21246 0 l -2.21246 0 l -2.21246 0 l -2.21246 0 l 0 2.21246 l -2.21246 0 l -2.21246 0 l -2.21246 0 l -2.21246 0 l -2.21246 0 l -2.21246 0 l 0 2.21246 l -2.21246 0 l -2.21246 0 l -2.21246 0 l -2.21246 2.21246 l -2.21246 0 l -2.21246 0 l -2.21246 0 l -2.21246 2.21246 l -2.21246 0 l -2.21246 0 l 0 2.21246 l -2.21246 0 l -2.21246 0 l 0 2.21246 l -2.21246 0 l -2.21246 0 l -2.21246 0 l -2.21246 0 l 0 2.21246 l -2.21246 0 l -2.21246 0 l -2.21246 0 l -2.21246 0 l -2.21246 0 l -2.21246 0 l 0 2.21246 l -2.21246 0 l 0 2.21246 l -2.21246 0 l 0 -2.21246 l 0 -2.21246 l 4.4249 0 l 0 -2.21246 l 2.21246 -2.21246 l 2.21246 0 l 0 -4.4249 l 2.21246 0 l 0 -2.21246 l 2.21246 -2.21246 l 0 -2.21246 l 0 -2.21246 l 0 -2.21245 l 0 -2.21245 l 2.21246 0 l 0 -2.21245 l 0 -2.21245 l 0 -2.21245 l 2.21246 0 l 0 -2.21245 l 0 -2.21245 l 2.21246 0 l 0 -2.21245 l 0 -2.21245 l 0 -2.21245 l 2.21246 0 l 0 -2.21245 l 0 -2.21245 l 0 -2.21245 l 4.4249 0 l 0 -2.21245 l 0 -2.21245 l 0 -2.21245 l 2.21246 0 l 0 -2.21245 l 0 -4.42491 l 2.21246 0 l 0 -2.21245 l 0 -2.21245 l 2.21246 -2.21245 l 0 -2.21245 l 0 -2.21245 l 2.21246 0 l 2.21246 0 l 0 -2.21245 l 0 -2.21245 l 0 -2.21245 l 0 -2.21245 l 0 -2.21245 l 2.21246 -2.21245 l 0 -2.21245 l 2.21246 0 l 0 -2.21245 l 0 -2.21245 Z" /><path stroke="black" id="e13_freepath" style="fill: none; stroke-width: 2px; vector-effect: non-scaling-stroke;" d="M 566.068 336.675 l 2.21246 -2.21245 l 0 -2.21245 l 2.21246 0 l 2.21246 0 l 2.21246 0 l 2.21246 -2.21245 l 2.21246 0 l 2.21246 0 l 2.21246 0 l 2.21246 0 l 0 -2.21245 l 2.21246 0 l 0 -4.42491 l 2.21246 0 l 2.21246 -2.21245 l 2.21246 0 l 0 -2.21245 l 0 -2.21245 l 2.21246 0 l 0 -2.21245 l 2.21246 -2.21245 l 4.4249 0 l 0 -2.21245 l 2.21246 0 l 0 -2.21245 l 2.21246 -2.21245 l 2.21246 0 l 0 -2.21245 l 0 -2.21245 l 2.21246 0 l 0 -2.21245 l 2.21246 0 l 2.21246 0 l 0 -2.21245 l 2.21246 0 l 0 -2.21245 l 2.21246 0 l 0 -4.42491 l 2.21246 0 l 0 -2.21245 l 2.21246 0 l 0 -2.21245 l 2.21246 0 l 0 -2.21245 l 0 -2.21245 l 2.21246 0 l 0 -2.21245 l 0 -2.21245 l 2.21246 0 l 0 -2.21245 l 0 -2.21245 l 2.21246 0 l 0 -2.21245 l 2.21246 0 l 0 -2.21245 l 2.21246 0 l 0 -2.21245 l 0 -2.21245 l 2.21246 0 l 0 -2.21245 l 0 -2.21245 l 2.21246 0 l 0 -2.21245 l 2.21246 0 l 0 -2.21245 l 0 -2.21245 l 2.21246 0 l 0 -2.21245 l 2.21246 0 l 0 -2.21245 l 0 -2.21245 l 2.21246 0 l 0 -2.21245 l 0 -2.21245 l 2.21246 0 l 0 -2.21245 l 0 -2.21245 l 0 -2.21245 l 2.21246 0 l 0 -2.21245 l 0 -2.21245 l 0 -2.21245 l 0 -2.21245 l 2.21246 0 l 0 -2.21245 l 0 -2.21245 l 0 -2.21245 l 0 -2.21245 l 0 -2.21245 l 0 -2.21245 l 0 -2.21245 l 0 -2.21245 l 0 -2.21246 l 0 -2.21246 l 0 -2.21246 l 0 -2.21246 l 0 -2.21246 l 0 -2.21246 l 0 -2.21246 l 0 -2.21246 l 0 -2.21246 l 0 -2.21246 l 0 -4.42491 l 0 -2.21246 l 0 -2.21246 l 0 -2.21246 l 0 -2.21246 l 0 -2.21246 l 0 -2.21246 l 0 -2.21246 l 0 -2.21246 l 0 -2.21246 l 0 -2.21246 l -2.21246 0 l 0 -2.21246 l 0 -2.21246 l -2.21246 0 l 0 -2.21246 l 0 -2.21246 l -2.21246 0 l 0 -2.21246 l -2.21246 0 l 0 -2.21246 l -2.21246 0 l 0 -2.21246 l 0 -2.21246 l 0 2.21246 l 0 2.21246 l 0 2.21246 l 2.21246 0" /></svg>