<?xml version="1.0" standalone="no"?>
<!DOCTYPE svg PUBLIC "-//W3C//DTD SVG 20010904//EN"
 "http://www.w3.org/TR/2001/REC-SVG-20010904/DTD/svg10.dtd">
<svg version="1.0" xmlns="http://www.w3.org/2000/svg"
 width="413.000000pt" height="103.000000pt" viewBox="0 0 413.000000 103.000000"
 preserveAspectRatio="xMidYMid meet">
<metadata>
Created by potrace 1.12, written by Peter Selinger 2001-2015
</metadata>
<g transform="translate(0.000000,103.000000) scale(0.100000,-0.100000)"
fill="#000000" stroke="none">
<path d="M270 735 l0 -75 80 0 80 0 0 -170 0 -170 80 0 80 0 0 170 0 170 85 0
85 0 0 75 0 75 -245 0 -245 0 0 -75z"/>
<path d="M930 735 l0 -75 165 0 165 0 0 75 0 75 -165 0 -165 0 0 -75z"/>
<path d="M2173 685 l-33 -14 0 -131 0 -130 35 0 35 0 0 75 c0 59 3 77 16 82
26 10 38 -14 42 -87 4 -70 4 -70 33 -70 l29 0 0 85 c0 72 -3 88 -20 105 -21
21 -56 26 -80 10 -12 -8 -16 -1 -20 40 l-5 48 -32 -13z"/>
<path d="M2464 686 c-98 -43 -111 -211 -20 -267 43 -28 126 -22 161 11 32 30
31 41 -4 62 -28 15 -30 15 -47 -3 -22 -25 -60 -24 -74 0 -17 33 -12 106 8 124
24 22 37 21 60 -4 15 -15 26 -18 47 -13 34 9 41 26 20 57 -28 44 -94 58 -151
33z"/>
<path d="M3638 688 l-28 -10 0 -139 0 -139 35 0 34 0 3 78 c3 69 5 77 23 77
18 0 20 -8 23 -77 l3 -78 39 0 40 0 0 74 c0 124 -24 158 -100 142 -30 -5 -30
-5 -30 39 0 48 -1 49 -42 33z"/>
<path d="M1440 660 c0 -28 2 -30 40 -30 l40 0 0 -110 0 -110 35 0 35 0 0 110
0 110 40 0 c38 0 40 2 40 30 l0 30 -115 0 -115 0 0 -30z"/>
<path d="M770 485 l0 -165 245 0 245 0 0 80 0 80 -170 0 -170 0 0 85 0 85 -75
0 -75 0 0 -165z"/>
<path d="M1718 605 c-57 -31 -61 -134 -7 -179 33 -28 59 -32 107 -15 27 9 30
14 22 29 -8 15 -18 18 -45 13 -34 -5 -65 8 -65 28 0 5 30 9 66 9 l67 0 -6 42
c-10 75 -74 108 -139 73z"/>
<path d="M1939 591 c-24 -25 -29 -38 -29 -80 0 -62 28 -99 81 -107 29 -5 41
-1 65 19 28 25 28 26 10 40 -17 12 -22 12 -34 1 -43 -43 -86 40 -48 92 13 16
18 17 36 6 15 -9 26 -10 40 -2 26 14 25 25 -2 44 -36 26 -85 20 -119 -13z"/>
<path d="M2680 510 l0 -110 40 0 40 0 0 74 c0 77 8 92 42 75 12 -7 18 -4 22 9
2 9 7 27 11 39 6 21 3 22 -75 22 l-80 0 0 -109z"/>
<path d="M2872 530 c6 -120 13 -128 119 -128 l79 0 0 109 0 109 -35 0 -34 0
-3 -77 c-3 -70 -5 -78 -23 -78 -18 0 -20 8 -23 78 l-3 77 -41 0 -40 0 4 -90z"/>
<path d="M3130 509 l0 -109 35 0 35 0 0 64 c0 77 6 96 31 96 16 0 19 -10 21
-77 l3 -78 38 -3 37 -3 0 83 c0 47 -6 94 -13 108 -12 24 -18 25 -100 27 l-87
2 0 -110z"/>
<path d="M3413 605 c-31 -22 -47 -85 -33 -135 13 -49 42 -70 95 -70 31 0 47 6
65 25 13 14 22 26 19 28 -2 1 -12 8 -21 15 -13 10 -21 11 -36 1 -34 -21 -54
-5 -50 43 2 33 8 44 22 46 10 2 22 -2 26 -9 7 -10 14 -9 34 5 32 20 33 30 4
50 -29 20 -97 20 -125 1z"/>
</g>
</svg>
