<?xml version="1.0" encoding="UTF-8" standalone="no"?>
<!-- Created with Inkscape (http://www.inkscape.org/) -->

<svg
   xmlns:dc="http://purl.org/dc/elements/1.1/"
   xmlns:cc="http://creativecommons.org/ns#"
   xmlns:rdf="http://www.w3.org/1999/02/22-rdf-syntax-ns#"
   xmlns:svg="http://www.w3.org/2000/svg"
   xmlns="http://www.w3.org/2000/svg"
   xmlns:sodipodi="http://sodipodi.sourceforge.net/DTD/sodipodi-0.dtd"
   xmlns:inkscape="http://www.inkscape.org/namespaces/inkscape"
   id="svg2"
   version="1.1"
   inkscape:version="0.48.2 r9819"
   width="580.11151"
   height="97.775864"
   sodipodi:docname="The Verge logo.svg">
  <metadata
     id="metadata8">
    <rdf:RDF>
      <cc:Work
         rdf:about="">
        <dc:format>image/svg+xml</dc:format>
        <dc:type
           rdf:resource="http://purl.org/dc/dcmitype/StillImage" />
        <dc:title></dc:title>
      </cc:Work>
    </rdf:RDF>
  </metadata>
  <defs
     id="defs6" />
  <sodipodi:namedview
     pagecolor="#ffffff"
     bordercolor="#666666"
     borderopacity="1"
     objecttolerance="10"
     gridtolerance="10"
     guidetolerance="10"
     inkscape:pageopacity="0"
     inkscape:pageshadow="2"
     inkscape:window-width="1600"
     inkscape:window-height="837"
     id="namedview4"
     showgrid="false"
     fit-margin-top="0"
     fit-margin-left="0"
     fit-margin-right="0"
     fit-margin-bottom="0"
     inkscape:zoom="1.4142136"
     inkscape:cx="447.99484"
     inkscape:cy="12.707593"
     inkscape:window-x="-8"
     inkscape:window-y="-8"
     inkscape:window-maximized="1"
     inkscape:current-layer="svg2" />
  <path
     style="fill:#000000"
     d="M 476.72316,97.24735 C 459.83906,94.29418 445.83042,83.0576 439.47983,67.37378 436.20909,59.29616 435.10188,45.44751 437.0622,37.13471 439.8526,25.30194 447.36233,14.47894 457.13253,8.20943 465.80179,2.64637 472.66178,1.07758 490.80412,0.50914 L 507.05412,0 l 0,17.01363 0,17.01363 -6.25,-2.54549 c -4.1053,-1.672 -8.82364,-2.68929 -13.75,-2.96456 -7.0001,-0.39114 -7.81349,-0.21717 -12.20335,2.61012 -6.29018,4.05119 -9.19161,9.63243 -9.25146,17.79627 -0.0388,5.29266 0.3847,6.77552 2.9964,10.49151 4.0512,5.76416 9.5692,8.81141 15.95841,8.81287 6.63451,0.002 7.70849,-0.81581 7.3192,-5.57003 l -0.3192,-3.89821 -7.75,0.0497 -7.75,0.0497 -9.6e-4,-11.04972 -9.7e-4,-11.04973 21.00097,0.28861 21.00096,0.28861 0,20.31217 c 0,12.34508 0.43684,21.56528 1.11372,23.50699 1.40126,4.01965 0.0877,5.65161 -8.03245,9.97962 -9.7875,5.21668 -24.54459,7.83754 -34.41223,6.11161 z"
     id="path3109"
     inkscape:connector-curvature="0" />
  <path
     style="fill:#000000"
     d="m 16.68684,93.50974 c 0.46569,-0.9625 0.98714,-16.30814 1.1588,-34.10143 L 18.15774,27.05688 9.07887,27.40831 0,27.75974 l 0.27706,-13.5 0.27706,-13.5 23.25,-0.26843 23.25,-0.26843 0,47.51843 0,47.51843 -15.60699,0 c -14.51968,0 -15.548,-0.12192 -14.76029,-1.75 z"
     id="path3107"
     inkscape:connector-curvature="0" />
  <path
     style="fill:#000000"
     d="m 53.05412,47.75974 0,-47.5 20.5,0 20.5,0 0,13.83227 0,13.83228 -5.5,-0.45611 -5.5,-0.4561 0,5.12383 0,5.12383 8.5,0 8.5,0 0,-18.5 0,-18.5 15,0 15,0 0,47.5 0,47.5 -15.97525,0 -15.97525,0 0.97525,-2.5651 c 0.53639,-1.4108 0.97525,-9.2858 0.97525,-17.5 l 0,-14.9349 -8.54775,0 -8.54774,0 0.30402,15.75 c 0.16721,8.6625 0.68684,16.5375 1.15473,17.5 0.79211,1.62945 -0.25887,1.75 -15.25627,1.75 l -16.10699,0 0,-47.5 z"
     id="path3105"
     inkscape:connector-curvature="0" />
  <path
     style="fill:#000000"
     d="m 134.18168,93.60727 c 2.08546,-2.51098 2.56573,-83.30668 0.5303,-89.21454 l -1.42393,-4.13299 28.88304,0 28.88303,0 0,13.85351 0,13.85352 -5.25,-1.37633 c -2.96258,-0.77667 -8.73559,-1.25747 -13.25,-1.10352 l -8,0.27282 -0.30373,5.87822 -0.30373,5.87822 8.55373,-0.44895 8.55373,-0.44896 0,11.69951 0,11.6995 -4.42444,-0.94364 c -2.43344,-0.519 -6.14594,-0.80195 -8.25,-0.62877 l -3.82556,0.31487 -0.30606,5.35971 -0.30607,5.3597 11.30607,-0.49388 c 6.21833,-0.27164 12.31856,-0.82349 13.55606,-1.22634 l 2.25,-0.73245 0,14.11663 0,14.11663 -29.12244,0 c -26.96791,0 -29.02091,-0.12225 -27.75,-1.65247 z"
     id="path3103"
     inkscape:connector-curvature="0" />
  <path
     style="fill:#000000"
     d="M 247.72268,92.00974 C 233.88614,58.90269 210.07473,5.24925 208.26257,3.09562 l -2.38624,-2.83588 33.5889,0 c 18.47389,0 33.58737,0.3375 33.58552,0.75 -0.002,0.4125 -1.964,5.925 -4.36033,12.25 l -4.35696,11.5 -7.63967,0.29206 c -4.20182,0.16064 -7.63967,0.46165 -7.63967,0.66892 0,0.94688 9.36762,26.12789 9.9783,26.82257 0.37884,0.43095 5.1038,-11.15655 10.49991,-25.75 l 9.81111,-26.53355 38.85534,0 38.85534,0 0,14.60699 c 0,13.55161 -0.12644,14.54879 -1.75,13.80148 -0.9625,-0.44304 -7.0375,-0.97887 -13.5,-1.19074 l -11.75,-0.38523 0,5.20915 0,5.20915 8.5,-0.44613 8.5,-0.44614 0,11.69951 0,11.6995 -4.42444,-0.94364 c -2.43344,-0.519 -6.14594,-0.80195 -8.25,-0.62877 l -3.82556,0.31487 -0.2999,5.75 -0.29991,5.75 8.92418,0 c 5.3764,0 10.61433,-0.59632 13.17563,-1.5 2.3383,-0.825 4.41988,-1.5 4.62573,-1.5 0.20585,0 0.37427,6.3 0.37427,14 l 0,14 -29.12244,0 c -23.85795,0 -28.92642,-0.2362 -28.03803,-1.30665 1.19347,-1.43804 2.16981,-70.69494 0.9966,-70.69393 -0.36513,3.2e-4 -7.55366,16.20058 -15.97451,36.00058 l -15.31064,36 -10.26207,0 -10.26207,0 -1.35828,-3.25 z"
     id="path3101"
     inkscape:connector-curvature="0" />
  <path
     style="fill:#000000"
     d="m 360.90926,0.24793 0.8125,2.25 c 1.09186,3.00553 1.06289,88.76573 -0.0312,91 -0.79917,1.63194 0.29557,1.75 16.28125,1.75 16.63809,0 17.12975,-0.0601 16.125,-1.9375 -0.56935,-1.06384 -1.03125,-7.38928 -1.03125,-14.0625 0,-12.11276 0.004,-12.13225 2.25,-11.46875 4.2062,1.24245 9.70933,5.47191 12.375,9.5 3.00731,4.54436 4.22899,12.49632 2.4375,15.84375 l -1.15625,2.125 17.09375,0 c 9.99886,0 16.85981,-0.37508 16.53125,-0.90625 -0.30894,-0.49988 -1.37746,-5.84518 -2.40625,-11.875 -2.26577,-13.27978 -6.3268,-21.72792 -12.78125,-26.65625 l -4.28125,-3.28125 2.4375,-3.28125 c 8.15759,-11.05699 6.85309,-29.55317 -2.75,-39.15625 -7.81433,-7.81433 -16.71208,-9.8014 -43.59375,-9.8125 l -18.3125,-0.0312 z m 34.34375,25.03125 c 0.96336,0.0595 2.35652,0.60718 4.34375,1.4375 5.95539,2.48832 7.16059,8.99566 2.53125,13.625 -1.9641,1.96411 -3.93252,2.90625 -6,2.90625 l -3.0625,0 0,-9 c 0,-6.87387 0.0681,-9.09971 2.1875,-8.96875 z"
     id="path3099"
     inkscape:connector-curvature="0" />
  <path
     style="fill:#000000"
     d="m 522.69713,93.50974 c 1.0972,-2.24052 1.1299,-87.99813 0.0347,-91.01545 l -0.8223,-2.26546 28.8223,0.26546 28.82229,0.26545 0.2787,13.8265 0.2787,13.8265 -2.2787,-0.73089 c -5.5407,-1.77715 -9.7926,-2.37598 -17.0287,-2.39825 l -7.75,-0.0239 0,6.1254 0,6.1254 8.5,-0.44613 8.5,-0.44614 0,11.92772 c 0,10.95186 -0.1432,11.87215 -1.75,11.24842 -0.9625,-0.37362 -4.7399,-0.93305 -8.3943,-1.24317 l -6.64431,-0.56385 -0.35569,5.26355 c -0.24851,3.67744 0.0379,5.41458 0.95056,5.76475 1.69772,0.65141 21.01794,-0.39421 23.94374,-1.29583 l 2.25,-0.69338 0,14.11663 0,14.11663 -29.10699,0 c -27.38075,0 -29.05616,-0.10379 -28.25,-1.75 z"
     id="path3095"
     inkscape:connector-curvature="0" />
</svg>
