<?xml version="1.0" standalone="no"?>
<!DOCTYPE svg PUBLIC "-//W3C//DTD SVG 20010904//EN"
 "http://www.w3.org/TR/2001/REC-SVG-20010904/DTD/svg10.dtd">
<svg version="1.0" xmlns="http://www.w3.org/2000/svg"
 width="256.000000pt" height="24.000000pt" viewBox="0 0 256.000000 24.000000"
 preserveAspectRatio="xMidYMid meet">
<metadata>
Created by potrace 1.12, written by Peter Selinger 2001-2015
</metadata>
<g transform="translate(0.000000,24.000000) scale(0.100000,-0.100000)"
fill="#000000" stroke="none">
<path d="M21 202 c1 -17 3 -20 6 -9 2 9 11 17 19 17 18 0 20 -170 2 -188 -9
-9 -5 -12 18 -12 l29 0 -3 100 c-3 102 6 127 26 68 l10 -33 1 38 c1 23 5 36
11 32 15 -9 13 -192 -3 -198 -6 -3 2 -6 18 -6 l30 -1 -3 55 c-4 51 -2 55 18
55 20 0 22 -4 18 -55 l-3 -55 30 0 c20 0 26 3 17 9 -11 6 -13 33 -10 110 3 96
2 101 -17 101 -18 0 -20 -6 -17 -50 4 -46 2 -50 -18 -50 -20 0 -22 4 -18 49
l3 49 -82 1 -83 1 1 -28z"/>
<path d="M445 213 c3 -10 13 -49 21 -88 28 -138 28 -139 48 -53 l13 53 12 -59
c7 -32 16 -54 21 -50 4 5 15 49 25 99 9 50 22 96 27 103 8 9 6 12 -8 12 -16 0
-19 -8 -21 -48 -1 -26 -6 -58 -11 -71 -7 -21 -10 -17 -20 32 -6 32 -9 64 -6
72 5 11 -1 15 -20 15 -24 0 -25 -2 -15 -27 6 -16 7 -48 4 -73 -7 -41 -8 -43
-16 -21 -5 13 -10 46 -12 72 -2 44 -4 49 -26 49 -18 0 -22 -4 -16 -17z"/>
<path d="M646 219 c-3 -8 -12 -52 -21 -99 -10 -47 -22 -91 -27 -97 -8 -10 -5
-13 9 -13 16 0 19 5 15 25 -3 20 0 25 17 25 26 0 40 -28 20 -41 -9 -5 17 -9
69 -9 l82 0 -1 28 c0 26 -1 26 -9 5 -5 -13 -17 -23 -25 -23 -14 0 -16 14 -13
105 l3 105 -29 0 c-23 0 -27 -3 -18 -12 15 -15 16 -184 1 -193 -16 -10 -17 -7
-39 100 -21 103 -26 117 -34 94z"/>
<path d="M1218 130 c3 -78 1 -105 -10 -111 -9 -6 -3 -9 17 -9 l30 0 -4 57 c-3
51 -1 56 12 44 9 -7 17 -31 19 -54 l3 -42 78 -3 77 -3 0 38 -1 38 -14 -33
c-22 -51 -45 -42 -45 18 0 54 6 62 20 28 7 -18 9 -13 9 27 0 46 -1 48 -12 25
-11 -24 -11 -23 -15 19 -2 23 -1 45 1 47 11 11 38 -12 46 -40 10 -31 10 -31 8
9 l-2 40 -55 3 c-44 3 -53 1 -42 -9 15 -16 17 -185 2 -194 -5 -3 -10 2 -10 12
0 14 -2 15 -9 5 -5 -9 -10 -1 -15 26 -3 22 -11 42 -18 44 -7 3 -4 12 11 27 15
15 20 28 15 44 -9 31 -14 35 -59 42 l-40 7 3 -102z"/>
<path d="M1848 219 c-23 -13 -41 -84 -33 -128 22 -120 105 -103 105 22 0 57
-12 94 -34 109 -14 10 -17 9 -38 -3z"/>
<path d="M1940 130 c5 -103 12 -119 51 -120 29 0 38 25 41 116 2 71 6 89 18
89 12 0 16 -18 18 -88 2 -57 -1 -94 -9 -103 -9 -12 -6 -14 21 -14 27 0 30 2
21 14 -14 17 -11 92 4 89 6 -1 13 -20 17 -44 9 -51 23 -68 40 -51 9 9 9 12 0
12 -7 0 -12 14 -12 33 0 18 -5 38 -12 45 -9 9 -8 15 6 25 26 19 18 68 -14 84
-14 7 -45 13 -70 13 l-45 0 3 -100 c3 -86 1 -101 -13 -107 -28 -10 -36 17 -33
115 3 86 2 92 -17 92 -19 0 -20 -5 -15 -100z"/>
<path d="M2325 133 c-10 -54 -22 -104 -27 -111 -8 -9 -5 -12 9 -12 16 0 19 5
15 25 -3 21 0 25 18 25 18 0 21 -4 18 -25 -5 -25 -5 -25 73 -25 l79 0 -1 38
c-1 21 -3 29 -6 17 -7 -27 -23 -45 -40 -45 -12 0 -14 18 -11 105 3 99 2 105
-17 105 -19 0 -20 -6 -17 -106 3 -84 1 -105 -10 -102 -8 3 -21 46 -32 106 -11
56 -23 102 -27 102 -4 0 -14 -44 -24 -97z"/>
</g>
</svg>
