<?xml version="1.0" encoding="utf-8"?>
<svg xmlns="http://www.w3.org/2000/svg"
	xmlns:xlink="http://www.w3.org/1999/xlink" width="42px" height="83px" viewBox="0 0 42 83">
<path fillRule="evenodd" d="M 27.99 72.91C 26.09 74.22 23.56 74.3 21.34 75.15 19.97 75.67 18.7 76.63 17.34 76.84 12.11 77.65 8.11 81.98 1.9 82.09 1.43 81.1 1.5 80.97 0.95 80.03 1.94 78.47 2.18 76.74 2.81 75.41 2.33 75.2 1.75 75.16 1.56 74.34 1.77 74.17 1.86 73.95 1.74 73.62 4.29 72.88 5.78 70.25 6.45 68.38 7.7 64.88 10.52 60.92 10.47 57.49 10.78 57.3 11.08 57.6 11.06 57.28 11.04 55.98 12.05 53.76 13.04 52.39 12.86 50.85 13.5 49.7 14.86 48.88 15.2 50.87 13.62 51.96 13.52 53.74 14.32 52.01 15.98 49.38 16.91 47.25 17.48 45.95 17.42 44.34 18.94 44.31 19.35 50 15.9 53.88 14.66 58.8 13.6 60.3 12.38 61.72 11.95 63.51 10.04 65.15 9.67 67.51 7.83 69.19 7.56 70.7 7.04 71.73 6.73 72.87 11.54 71.17 15.14 68.28 18.88 65.77 22.52 62.34 24.7 58.25 27.84 54.59 33.28 46.08 35.7 36.18 38.17 26.29 39.06 18.95 40.21 10.66 36.57 3.26 36.15 2.39 35.33 1.76 35.42 0.62 36.32 0.06 36.6 0.83 37.24 0.82 42.12 12.59 40.3 26.01 36.67 36.25 35.32 43.66 31.1 52.2 25.84 58.83 25.2 60.89 22.03 64.24 20.5 65.39 17.31 68.85 12.37 71.76 5.85 74.73 5.4 76.08 4.48 77.22 4.17 78.63 5.97 78.16 8.13 76.98 10.18 76.42 11 76.19 11.88 76.39 12.51 76.21 17.47 74.8 20.13 73.16 25.04 71.38 28.99 69.95 34.59 68.2 37.45 67.46 38.98 67.07 40.82 66.74 41.15 67.41 41.69 68.52 40.04 68.69 38.91 69.11 36.35 70.06 31.13 72.75 27.99 72.91ZM 12.37 61.61C 13.28 59.16 16.63 52.87 17.16 49.78 13.9 54.08 11.09 59.99 9.13 65.43 10.4 64.93 10.83 62.5 12.37 61.61ZM 4.3 75.3C 4.58 74.77 3.6 76.05 3.61 76.43 4.19 76.84 4.27 75.67 4.3 75.3ZM 33.72 69.93C 33.04 69.87 31.9 70.07 31.79 70.64 23.64 72.12 16.25 76.1 3.1 80.55 5.53 81.15 8.29 79.29 11.38 77.94 19.23 74.52 27.25 73.37 33.72 69.93Z" fill="rgb(0,0,0)"/></svg>
