<?xml version="1.0" encoding="utf-8"?>
<svg xmlns="http://www.w3.org/2000/svg"
	xmlns:xlink="http://www.w3.org/1999/xlink"
	width="37px" height="42px" viewBox="0 0 42 42">
<path fillRule="evenodd" d="M-0 1.14C-0 1.14-0 21-0 21-0 21-0 40.85-0 40.85-0 40.85 20.23 21 20.23 21 20.23 21-0 1.14-0 1.14Z" fill="rgb(135,135,135)"/><path fillRule="evenodd" d="M 26.67 14.67C 26.67 14.67 18.5 10 18.5 10 18.5 10 1-0 1-0 1-0 1 0.14 1 0.14 1 0.14 21.23 20 21.23 20 21.23 20 26.67 14.67 26.67 14.67Z" fill="rgb(135,135,135)"/><path fillRule="evenodd" d="M 1 41.85C 1 41.85 1 42 1 42 1 42 18.5 32 18.5 32 18.5 32 26.67 27.33 26.67 27.33 26.67 27.33 21.23 22 21.23 22 21.23 22 1 41.85 1 41.85Z" fill="rgb(135,135,135)"/><path fillRule="evenodd" d="M 27.67 15.67C 27.67 15.67 22.23 21 22.23 21 22.23 21 27.67 26.33 27.67 26.33 27.67 26.33 37 21 37 21 37 21 27.67 15.67 27.67 15.67Z" fill="rgb(135,135,135)"/></svg>