<?xml version="1.0" encoding="utf-8"?>
<svg xmlns="http://www.w3.org/2000/svg"
	xmlns:xlink="http://www.w3.org/1999/xlink"
	width="300px" height="638px" viewBox="0 0 300 638">
<clipPath id="clip0"><rect x="0" y="0" width="300" height="638" rx="35"/></clipPath><clipPath id="clip1"><circle cx="25.00" cy="25.00" r="25.00"/></clipPath><clipPath id="clip2"><rect x="0" y="0" width="260" height="455"/></clipPath><defs>
<symbol id="symbol0"><rect x="0" y="0" width="300" height="638" rx="35"/></symbol><symbol id="symbol1"><circle cx="150.00" cy="589.00" r="25.00"/></symbol><symbol id="symbol2"><rect x="20" y="93" width="260" height="455"/></symbol></defs>
<g><use xlink:href="#symbol0" x="0" y="0" width="300" height="638" fill="rgb(255,255,255)"/><use xlink:href="#symbol0" x="0" y="0" width="300" height="638" fill="none" stroke="rgb(187,187,187)" stroke-width="2.00px" clip-path="url(#clip0)"/></g><g><use xlink:href="#symbol1" x="125" y="564" width="50" height="50" fill="rgb(255,255,255)"/><use xlink:href="#symbol1" x="125" y="564" width="50" height="50" fill="none" stroke="rgb(237,237,237)" stroke-width="2.00px" clip-path="url(#clip1)"/></g><g><use xlink:href="#symbol2" x="20" y="93" width="260" height="455" fill="rgb(255,255,255)"/><use xlink:href="#symbol2" x="20" y="93" width="260" height="455" fill="none" stroke="rgb(237,237,237)" stroke-width="2.00px" clip-path="url(#clip2)"/></g><circle cx="151.50" cy="23.50" r="4.50" fill="rgb(237,237,237)"/><path fillRule="evenodd" d="M 144.5 580C 144.5 580 155.5 580 155.5 580 156.88 580 158 582.31 158 583.69 158 583.69 158 595.5 158 595.5 158 596.88 156.88 598 155.5 598 155.5 598 144.5 598 144.5 598 143.12 598 142 596.88 142 595.5 142 595.5 142 582.5 142 582.5 142 581.11 143.12 580 144.5 580Z" fill="rgb(237,237,237)"/><path fillRule="evenodd" d="M 130.24 47C 130.24 47 172.68 47 172.68 47 175.43 47 177.67 49.21 177.67 51.63 177.67 54.04 175.43 56 172.68 56 172.68 56 130.24 56 130.24 56 127.48 56 125.24 54.43 125.24 52.02 125.24 49.6 127.48 47 130.24 47Z" fill="rgb(237,237,237)"/></svg>