<?xml version="1.0" encoding="utf-8"?>
<svg xmlns="http://www.w3.org/2000/svg"
	xmlns:xlink="http://www.w3.org/1999/xlink"
	width="72px" height="31px" viewBox="0 0 72 31">
<path fillRule="evenodd" d="M 15.5-0C 15.5-0 56.5-0 56.5-0 65.06-0 72 6.94 72 15.5 72 15.5 72 15.5 72 15.5 72 24.06 65.06 31 56.5 31 56.5 31 15.5 31 15.5 31 6.94 31-0 24.06-0 15.5-0 15.5-0 15.5-0 15.5-0 6.94 6.94-0 15.5-0Z" fill="rgb(0,0,0)" opacity="0.35"/><path fillRule="evenodd" d="M 13.5 3C 13.5 3 58.5 3 58.5 3 65.4 3 71 8.59 71 15.5 71 15.5 71 15.5 71 15.5 71 22.4 65.4 28 58.5 28 58.5 28 13.5 28 13.5 28 6.6 28 1 22.4 1 15.5 1 15.5 1 15.5 1 15.5 1 8.59 6.6 3 13.5 3Z" fill="rgb(255,255,255)"/></svg>