<?xml version="1.0" encoding="utf-8"?>
<svg xmlns="http://www.w3.org/2000/svg"
	xmlns:xlink="http://www.w3.org/1999/xlink"
	width="58px" height="24px" viewBox="0 0 58 24">
<path fillRule="evenodd" d="M 44.81 18.15C 46.1 17.49 46.9 16.13 48.03 15.16 48.73 14.56 49.64 14.15 50.17 13.46 52.19 10.83 55.79 9.9 57.72 6.52 57.31 5.97 57.21 5.97 56.86 5.39 55.69 5.47 54.65 5.1 53.72 5.05 53.74 4.72 53.9 4.39 53.5 4.04 53.34 4.1 53.18 4.09 53.04 3.92 51.86 5.11 49.94 5.16 48.69 4.97 46.34 4.62 43.26 5 41.33 3.95 41.13 4.07 41.21 4.32 41.04 4.21 40.31 3.82 38.74 3.71 37.66 3.86 36.84 3.3 35.99 3.31 35.11 3.82 36.15 4.6 37.25 4.05 38.29 4.53 37.06 4.46 35.07 4.59 33.57 4.47 32.66 4.4 31.75 3.89 31.29 4.72 34.42 6.65 37.66 5.89 40.82 6.67 41.99 6.53 43.16 6.27 44.3 6.57 45.79 6 47.23 6.5 48.73 5.97 49.65 6.27 50.39 6.29 51.12 6.46 48.73 8.61 46.03 9.74 43.5 11.06 40.49 12.06 37.52 12.06 34.51 12.72 28.04 13.21 21.62 11.63 15.16 10.06 10.6 8.36 5.39 6.51 2.07 2.21 1.69 1.71 1.55 1.05 0.85 0.75 0.25 1.09 0.63 1.49 0.43 1.85 5.96 8.16 14.36 11.16 21.38 12.19 26.04 13.63 32.18 13.81 37.51 12.86 38.87 13.11 41.7 12.35 42.81 11.84 45.7 11.1 48.81 9.24 52.42 6.52 53.31 6.68 54.23 6.51 55.11 6.75 54.31 7.6 53 8.44 52.07 9.4 51.7 9.79 51.55 10.33 51.26 10.63 48.99 12.94 47.28 13.91 44.82 16.09 42.85 17.83 40.2 20.39 38.94 21.74 38.27 22.47 37.54 23.37 37.82 23.75 38.29 24.36 38.87 23.51 39.44 23.01 40.73 21.89 43.78 19.82 44.81 18.15ZM 43.1 6.23C 41.44 6.01 36.87 6 34.95 5.37 38.37 4.84 42.56 5.04 46.22 5.57 45.56 6.13 44.06 5.65 43.1 6.23ZM 53.21 5.84C 52.83 5.83 53.84 5.67 54.05 5.79 54.11 6.23 53.43 5.93 53.21 5.84ZM 41.43 20.42C 41.6 20.03 42.05 19.46 42.41 19.57 45.65 15.54 50.08 12.65 56.5 6.73 56.11 8.24 54.24 9.21 52.57 10.51 48.31 13.82 45.28 17.88 41.43 20.42Z" fill="rgb(0,0,0)"/></svg>