<?xml version="1.0" encoding="utf-8"?>
<svg xmlns="http://www.w3.org/2000/svg"
	xmlns:xlink="http://www.w3.org/1999/xlink"
	width="29px" height="37px" viewBox="0 0 29 37">
<path fillRule="evenodd" d="M 11.51 7.57C 11.51 8.2 11 8.71 10.38 8.71 9.76 8.71 9.25 8.2 9.25 7.57 9.25 6.95 9.76 6.44 10.38 6.44 11 6.44 11.51 6.95 11.51 7.57ZM 19.75 7.57C 19.75 8.2 19.24 8.71 18.62 8.71 18 8.71 17.49 8.2 17.49 7.57 17.49 6.95 18 6.44 18.62 6.44 19.24 6.44 19.75 6.95 19.75 7.57ZM 23.89 11C 23.89 11 23.7 6.12 18.99 4.14 19.79 3.34 21.37 1.72 21.37 1.25 21.37 0.75 21.12 1 21.12 0.75 21.12 0.75 20.37 0.75 20.37 0.75 19.62 1.75 18.62 3 18.62 3.5 18.62 3.78 18.63 3.92 18.64 4 17.52 3.58 16.15 3.32 14.5 3.32 12.85 3.31 11.49 3.55 10.37 3.96 10.37 3.96 10.37 3.25 10.37 3.25 9.62 2.25 8.87 0.75 8.12 0.75 8.12 0.75 7.62 1.25 7.62 1.25 8.09 2.18 9 3.99 9.72 4.22 5.24 6.25 5.11 11 5.11 11 5.11 11 23.89 11 23.89 11ZM 11.01 37C 10.84 37 10.66 36.98 10.5 36.93 10.34 36.98 10.16 37 9.99 37 9.99 37 11.01 37 11.01 37ZM 19.01 37C 18.84 37 18.66 36.98 18.5 36.93 18.34 36.98 18.16 37 17.99 37 17.99 37 19.01 37 19.01 37ZM 17 34.98C 17 35.92 17.64 36.71 18.5 36.93 19.36 36.71 20 35.92 20 34.98 20 34.98 20 29 20 29 20 29 22.87 29 22.87 29 23.49 29 24 28.49 24 27.86 24 27.86 24 13.13 24 13.13 24 12.51 23.49 12 22.87 12 22.87 12 6.13 12 6.13 12 5.51 12 5 12.51 5 13.13 5 13.13 5 27.86 5 27.86 5 28.49 5.51 29 6.13 29 6.13 29 9 29 9 29 9 29 9 34.98 9 34.98 9 35.92 9.64 36.71 10.5 36.93 11.36 36.71 12 35.92 12 34.98 12 34.98 12 29 12 29 12 29 17 29 17 29 17 29 17 34.98 17 34.98ZM 4 23.24C 4 23.24 4 14.16 4 14.16 4 13.06 3.11 12.16 2.01 12.14 2.01 12.14 1.99 12.14 1.99 12.14 0.89 12.16-0 13.06-0 14.16-0 14.16-0 23.24-0 23.24-0 24.34 0.89 25.24 1.99 25.26 1.99 25.26 2.01 25.26 2.01 25.26 3.11 25.24 4 24.34 4 23.24ZM 29 23.24C 29 23.24 29 14.16 29 14.16 29 13.06 28.11 12.16 27.01 12.14 27.01 12.14 26.99 12.14 26.99 12.14 25.89 12.16 25 13.06 25 14.16 25 14.16 25 23.24 25 23.24 25 24.34 25.89 25.24 26.99 25.26 26.99 25.26 27.01 25.26 27.01 25.26 28.11 25.24 29 24.34 29 23.24Z" fill="rgb(255,255,255)"/></svg>