<?xml version="1.0" encoding="utf-8"?>
<svg xmlns="http://www.w3.org/2000/svg"
	xmlns:xlink="http://www.w3.org/1999/xlink"
	width="30px" height="34px" viewBox="0 0 34 34">
<path fillRule="evenodd" d="M 22.28 7.59C 26.37 7.59 28.98 11.4 28.98 11.4 28.98 11.4 24.99 13.49 24.99 18.02 24.99 23.39 30 24.96 30 24.96 30 24.96 26.05 34 21.61 34 19.12 34 18.95 32.61 15.64 32.61 12.76 32.61 11.79 34 9.59 34 5.41 34-0 25.18-0 18.02-0 10.57 5.47 7.59 8.91 7.59 11.92 7.59 13.18 9.3 15.6 9.3 17.65 9.3 19.25 7.59 22.28 7.59ZM 21.58-0C 22.18 3.65 18.75 8.16 14.65 8.01 14.05 3.37 18.47 0.24 21.58-0Z" fill="rgb(255,255,255)"/></svg>